<svg xmlns="http://www.w3.org/2000/svg" width="200.545" height="42.966" viewBox="0 0 200.545 42.966">
  <g id="logo-bio-cult-white-01" transform="translate(0 0.1)">
    <path id="Path_56" data-name="Path 56" d="M22.959,15.449a12.812,12.812,0,0,0-7.064-1.987,12.847,12.847,0,0,0-5.828,1.325,13.869,13.869,0,0,0-4.548,3.576V3.793a2.7,2.7,0,0,0-.751-1.987A3.062,3.062,0,0,0,2.737,1.1a2.845,2.845,0,0,0-1.987.751A2.7,2.7,0,0,0,0,3.837V28.43a15.728,15.728,0,0,0,1.987,7.638,14,14,0,0,0,5.3,5.342,14.387,14.387,0,0,0,7.55,1.987,14.577,14.577,0,0,0,12.892-7.329,14.818,14.818,0,0,0,1.987-7.638,16.125,16.125,0,0,0-1.81-7.638,14.415,14.415,0,0,0-4.945-5.342M23.135,33.6a9.372,9.372,0,0,1-3.444,3.62,9.269,9.269,0,0,1-4.9,1.325,9.007,9.007,0,0,1-4.857-1.325A9.372,9.372,0,0,1,6.49,33.6,11.127,11.127,0,0,1,5.3,28.43a10.4,10.4,0,0,1,1.236-5.166,9.565,9.565,0,0,1,3.444-3.576,9.226,9.226,0,0,1,4.857-1.325,9.16,9.16,0,0,1,4.9,1.325,9.914,9.914,0,0,1,3.444,3.576,10.42,10.42,0,0,1,1.28,5.166A11.211,11.211,0,0,1,23.135,33.6" transform="translate(0 -0.67)" fill="#fff"/>
    <path id="Path_57" data-name="Path 57" d="M83.582,29.6a2.845,2.845,0,0,0-1.987.751,2.562,2.562,0,0,0-.795,1.987V56.312a2.716,2.716,0,0,0,2.782,2.782,2.562,2.562,0,0,0,1.987-.795,2.845,2.845,0,0,0,.751-1.987V32.382a2.7,2.7,0,0,0-.751-1.987,2.562,2.562,0,0,0-1.987-.795" transform="translate(-45.126 -16.587)" fill="#fff"/>
    <path id="Path_58" data-name="Path 58" d="M82.576,2.7A3.438,3.438,0,0,0,80.06,3.76,3.438,3.438,0,0,0,79,6.276a3.438,3.438,0,0,0,1.06,2.517,3.518,3.518,0,0,0,5.033,0,3.438,3.438,0,0,0,1.06-2.517,3.438,3.438,0,0,0-1.06-2.517A3.438,3.438,0,0,0,82.576,2.7" transform="translate(-44.12 -1.564)" fill="#fff"/>
    <path id="Path_59" data-name="Path 59" d="M129.617,31.1a14.973,14.973,0,0,0-7.638-1.9,15.3,15.3,0,0,0-7.727,1.9A14.077,14.077,0,0,0,109,36.4a15.472,15.472,0,0,0-1.9,7.771,15.3,15.3,0,0,0,1.9,7.727,14.077,14.077,0,0,0,5.254,5.3,16.672,16.672,0,0,0,15.453,0,13.656,13.656,0,0,0,5.21-5.3,15.77,15.77,0,0,0,1.9-7.727,15.243,15.243,0,0,0-1.9-7.771,14.517,14.517,0,0,0-5.3-5.3m.662,18.279a9,9,0,0,1-8.3,4.857,9.589,9.589,0,0,1-4.945-1.28,9.157,9.157,0,0,1-3.4-3.576,10.57,10.57,0,0,1-1.236-5.21,10.743,10.743,0,0,1,1.236-5.254,8.856,8.856,0,0,1,3.4-3.576,9.7,9.7,0,0,1,4.945-1.28,9.589,9.589,0,0,1,4.945,1.28,9.019,9.019,0,0,1,3.356,3.576,11.236,11.236,0,0,1,1.192,5.254,10.93,10.93,0,0,1-1.192,5.21" transform="translate(-59.814 -16.364)" fill="#fff"/>
    <path id="Path_60" data-name="Path 60" d="M194.891,56.9H182.882a2.845,2.845,0,0,0-1.987.751,2.562,2.562,0,0,0-.795,1.987,2.53,2.53,0,0,0,.795,1.943,2.845,2.845,0,0,0,1.987.751h12.009a2.573,2.573,0,0,0,2.693-2.693,2.7,2.7,0,0,0-.751-1.987,2.561,2.561,0,0,0-1.943-.751" transform="translate(-100.583 -31.834)" fill="#fff"/>
    <path id="Path_61" data-name="Path 61" d="M240.244,26.5l9.89-8.83a2.529,2.529,0,0,0,.883-1.722,2.179,2.179,0,0,0-.706-1.766,2.434,2.434,0,0,0-1.678-.883,2.267,2.267,0,0,0-1.81.706L233.71,25.7V3.8a2.531,2.531,0,0,0-.706-1.9,2.531,2.531,0,0,0-1.9-.706,2.714,2.714,0,0,0-1.9.706,2.531,2.531,0,0,0-.706,1.9V40.627a2.607,2.607,0,1,0,5.21,0V32.371l2.693-2.384,10.243,12.672a2.426,2.426,0,0,0,1.766.927,2.541,2.541,0,0,0,1.9-.618,2.626,2.626,0,0,0,1.016-1.766,2.5,2.5,0,0,0-.618-1.854Z" transform="translate(-127.614 -0.726)" fill="#fff"/>
    <path id="Path_62" data-name="Path 62" d="M315.09,29.444a2.845,2.845,0,0,0-1.987.751,2.562,2.562,0,0,0-.795,1.987V47.37a6.024,6.024,0,0,1-1.06,3.488,7.462,7.462,0,0,1-2.87,2.472,8.793,8.793,0,0,1-4.106.927,9.931,9.931,0,0,1-4.371-.927,7.255,7.255,0,0,1-3.091-2.914,9.929,9.929,0,0,1-1.148-4.989V32.182a2.782,2.782,0,1,0-5.563,0V45.427a15.771,15.771,0,0,0,1.678,7.55,11.82,11.82,0,0,0,4.636,4.68,13.778,13.778,0,0,0,6.667,1.589,13.379,13.379,0,0,0,6.446-1.545,12.6,12.6,0,0,0,2.737-2.031v.574a2.716,2.716,0,0,0,2.781,2.782,2.562,2.562,0,0,0,1.987-.795,2.845,2.845,0,0,0,.751-1.987V32.182a2.7,2.7,0,0,0-.751-1.987,2.526,2.526,0,0,0-1.943-.751" transform="translate(-162.016 -16.475)" fill="#fff"/>
    <path id="Path_63" data-name="Path 63" d="M375.748,37.79H374.38a2.229,2.229,0,0,1-1.943-1.28,6.621,6.621,0,0,1-.751-3.267V3.793a2.664,2.664,0,0,0-.751-1.943,2.889,2.889,0,0,0-3.885,0,2.663,2.663,0,0,0-.751,1.943V33.2a12.684,12.684,0,0,0,1.015,5.166,8.419,8.419,0,0,0,2.87,3.532,6.941,6.941,0,0,0,4.194,1.28h.088a4.576,4.576,0,0,0,2.649-.751,2.33,2.33,0,0,0,1.015-1.943,2.8,2.8,0,0,0-.662-1.943,2.111,2.111,0,0,0-1.722-.751" transform="translate(-204.573 -0.67)" fill="#fff"/>
    <path id="Path_64" data-name="Path 64" d="M407.192,41.867h-1.81a3.636,3.636,0,0,1-2.914-1.457,5.5,5.5,0,0,1-1.192-3.62V23.5h4.592a2.469,2.469,0,0,0,1.81-.662,2.08,2.08,0,0,0,.706-1.634,2.2,2.2,0,0,0-.706-1.722,2.541,2.541,0,0,0-1.81-.662h-4.592V11.093a2.694,2.694,0,1,0-5.387,0v7.771h-2.473a2.469,2.469,0,0,0-1.81.662,2.2,2.2,0,0,0-.706,1.722,2.08,2.08,0,0,0,.706,1.634,2.541,2.541,0,0,0,1.81.662h2.473v13.29a11.214,11.214,0,0,0,1.236,5.342,9.636,9.636,0,0,0,3.4,3.753,8.772,8.772,0,0,0,4.857,1.369h.971a3.586,3.586,0,0,0,2.3-.751,2.455,2.455,0,0,0,.883-1.943,2.8,2.8,0,0,0-.662-1.943,2.242,2.242,0,0,0-1.678-.795" transform="translate(-218.311 -4.747)" fill="#fff"/>
    <path id="Path_65" data-name="Path 65" d="M441.458,7.932a2.2,2.2,0,0,0,.751-.662,1.935,1.935,0,0,0,.265-1.015,1.78,1.78,0,0,0-.265-.971,1.821,1.821,0,0,0-.751-.662,2.892,2.892,0,0,0-1.1-.221h-1.28a.532.532,0,0,0-.574.486V9.963a.5.5,0,0,0,.132.353.54.54,0,0,0,.4.132.435.435,0,0,0,.353-.132.5.5,0,0,0,.132-.353V8.2h.927l1.192,2.031c.088.177.265.221.486.221a.487.487,0,0,0,.441-.221c.088-.177.044-.309-.088-.53Zm-1.943-2.649h.883a1.114,1.114,0,0,1,.751.265.971.971,0,0,1,.265.751,1.039,1.039,0,0,1-.265.751,1.039,1.039,0,0,1-.751.265h-.883Z" transform="translate(-244.895 -2.513)" fill="#fff"/>
    <path id="Path_66" data-name="Path 66" d="M440.946,3.035A5.188,5.188,0,0,0,438.208.3a5.166,5.166,0,0,0-3.974,0A5.188,5.188,0,0,0,431.5,3.035a4.989,4.989,0,0,0-.4,1.987,4.989,4.989,0,0,0,.4,1.987,5.188,5.188,0,0,0,2.737,2.737,4.99,4.99,0,0,0,1.987.4,4.631,4.631,0,0,0,1.943-.4A5.188,5.188,0,0,0,440.9,7.008a4.989,4.989,0,0,0,.4-1.987,4.3,4.3,0,0,0-.353-1.987m-.971,3.532a3.7,3.7,0,0,1-.883,1.28,4.41,4.41,0,0,1-1.28.883,4.242,4.242,0,0,1-3.179,0,3.7,3.7,0,0,1-1.28-.883,4.41,4.41,0,0,1-.883-1.28,3.719,3.719,0,0,1-.309-1.545,3.583,3.583,0,0,1,.309-1.545,3.7,3.7,0,0,1,.883-1.28,4.41,4.41,0,0,1,1.28-.883A3.72,3.72,0,0,1,436.177,1a3.583,3.583,0,0,1,1.545.309A3.7,3.7,0,0,1,439,2.2a4.411,4.411,0,0,1,.883,1.28,3.72,3.72,0,0,1,.309,1.545,2.661,2.661,0,0,1-.221,1.545" transform="translate(-240.763 0)" fill="#fff"/>
  </g>
</svg>
