<svg xmlns="http://www.w3.org/2000/svg" xmlns:xlink="http://www.w3.org/1999/xlink" width="1311" height="597" viewBox="0 0 1311 597">
  <defs>
    <clipPath id="clip-path">
      <rect id="Rectangle_14" data-name="Rectangle 14" width="1311" height="597" transform="translate(551 90)" fill="#fff" stroke="#707070" stroke-width="1"/>
    </clipPath>
  </defs>
  <g id="Mask_Group_12" data-name="Mask Group 12" transform="translate(-551 -90)" clip-path="url(#clip-path)">
    <g id="flower" transform="translate(748 -113.378)" opacity="0.084">
      <path id="Path_8" data-name="Path 8" d="M617.888,295.9S599.5,316.143,599.5,347.451c0,21.8,7.847,29.668,13.316,32.537a11.08,11.08,0,0,0,10.145,0c5.469-2.869,13.315-10.736,13.315-32.537C636.2,316.061,617.888,295.9,617.888,295.9Z" transform="translate(-124.344 -53.39)" fill="#fff"/>
      <path id="Path_9" data-name="Path 9" d="M458.982,339.7s-6.1,26.964,9.035,54.091c10.541,18.85,21.162,21.637,27.186,21.309a11.29,11.29,0,0,0,8.8-5.245c3.329-5.245,6.341-16.146-4.2-35C484.662,347.65,458.982,339.7,458.982,339.7Z" transform="translate(-94.946 -61.293)" fill="#fff"/>
      <path id="Path_10" data-name="Path 10" d="M339.7,459.023s7.767,26.554,34,42.208c18.229,10.9,28.771,7.786,33.844,4.344a11.831,11.831,0,0,0,5.073-9.1c.317-6.31-2.3-17.211-20.607-28.111C365.776,452.712,339.7,459.023,339.7,459.023Z" transform="translate(-70.458 -82.596)" fill="#fff"/>
      <path id="Path_11" data-name="Path 11" d="M295.9,618.514s19.577,19.014,49.854,19.014c21.083,0,28.692-8.114,31.466-13.768a12.166,12.166,0,0,0,0-10.491c-2.774-5.655-10.383-13.769-31.466-13.769A76.551,76.551,0,0,0,295.9,618.514Z" transform="translate(-61.373 -108.169)" fill="#fff"/>
      <path id="Path_12" data-name="Path 12" d="M69.8,618.514s19.577,19.014,49.854,19.014c21.083,0,28.692-8.114,31.466-13.768a12.165,12.165,0,0,0,0-10.491c-2.774-5.655-10.383-13.769-31.466-13.769C89.377,599.5,69.8,618.514,69.8,618.514Z" transform="translate(-14.477 -108.169)" fill="#fff"/>
      <path id="Path_13" data-name="Path 13" d="M197.8,729.022a75.646,75.646,0,0,0,52.866,5c20.37-5.655,25.68-15.49,26.948-21.636A12.078,12.078,0,0,0,275,702.222c-4.042-4.672-13.474-10.491-33.764-4.835C211.987,705.5,197.8,729.022,197.8,729.022Z" transform="translate(-41.026 -125.41)" fill="#fff"/>
      <path id="Path_14" data-name="Path 14" d="M311.7,919.6s26.79-.9,48.189-23.03c14.9-15.408,14.742-26.718,12.84-32.7A11.415,11.415,0,0,0,365.6,856.5c-5.786-1.967-16.724-2.131-31.624,13.277C312.493,891.9,311.7,919.6,311.7,919.6Z" transform="translate(-64.65 -154.372)" fill="#fff"/>
      <path id="Path_15" data-name="Path 15" d="M506.873,1029.3s22.747-14.589,30.594-44.831c5.469-21.063-.158-30.734-4.676-34.913a11.138,11.138,0,0,0-9.828-2.7c-5.944,1.311-15.535,6.8-20.924,27.865C494.271,1004.872,506.873,1029.3,506.873,1029.3Z" transform="translate(-103.604 -170.798)" fill="#fff"/>
      <path id="Path_16" data-name="Path 16" d="M727.9,1029.278s12.681-24.423,4.835-54.665c-5.469-21.063-14.98-26.554-20.924-27.865a11.138,11.138,0,0,0-9.828,2.7c-4.518,4.18-10.145,13.932-4.676,34.914C705.156,1014.69,727.9,1029.278,727.9,1029.278Z" transform="translate(-144.162 -170.78)" fill="#fff"/>
      <path id="Path_17" data-name="Path 17" d="M917.494,919.6s-.872-27.7-22.271-49.829c-14.9-15.408-25.838-15.244-31.624-13.277a11.416,11.416,0,0,0-7.133,7.376c-1.9,5.983-2.06,17.293,12.84,32.7C890.705,918.7,917.494,919.6,917.494,919.6Z" transform="translate(-177.455 -154.372)" fill="#fff"/>
      <path id="Path_18" data-name="Path 18" d="M1026.574,729.022s-14.108-23.522-43.355-31.635c-20.37-5.655-29.722.164-33.764,4.836a12.078,12.078,0,0,0-2.616,10.163c1.268,6.147,6.578,16.063,26.948,21.637A75.486,75.486,0,0,0,1026.574,729.022Z" transform="translate(-196.338 -125.41)" fill="#fff"/>
      <path id="Path_19" data-name="Path 19" d="M1026.553,507.116a75.645,75.645,0,0,0-52.866-5c-20.369,5.655-25.68,15.49-26.948,21.637a12.079,12.079,0,0,0,2.616,10.163c4.042,4.671,13.474,10.49,33.764,4.835C1012.445,530.719,1026.553,507.116,1026.553,507.116Z" transform="translate(-196.317 -90.12)" fill="#fff"/>
      <path id="Path_20" data-name="Path 20" d="M917.494,311.7s-26.789.9-48.189,23.03c-14.9,15.408-14.742,26.718-12.84,32.7a11.415,11.415,0,0,0,7.133,7.376c5.786,1.967,16.724,2.131,31.624-13.277C916.623,339.4,917.494,311.7,917.494,311.7Z" transform="translate(-177.455 -56.241)" fill="#fff"/>
      <path id="Path_21" data-name="Path 21" d="M727.9,197.8s-22.747,14.588-30.594,44.83c-5.469,21.063.159,30.734,4.676,34.914a11.138,11.138,0,0,0,9.828,2.7c5.944-1.311,15.535-6.8,20.924-27.865C740.585,222.305,727.9,197.8,727.9,197.8Z" transform="translate(-144.163 -35.689)" fill="#fff"/>
      <path id="Path_22" data-name="Path 22" d="M506.864,197.8s-12.681,24.423-4.835,54.665c5.469,21.063,14.98,26.554,20.924,27.865a11.138,11.138,0,0,0,9.828-2.7c4.518-4.18,10.145-13.933,4.676-34.914C529.691,212.47,506.864,197.8,506.864,197.8Z" transform="translate(-103.596 -35.689)" fill="#fff"/>
      <path id="Path_23" data-name="Path 23" d="M311.7,311.7s.872,27.7,22.272,49.83c14.9,15.408,25.838,15.244,31.624,13.277a11.416,11.416,0,0,0,7.133-7.376c1.9-5.983,2.061-17.293-12.84-32.7C338.49,312.52,311.7,311.7,311.7,311.7Z" transform="translate(-64.65 -56.241)" fill="#fff"/>
      <path id="Path_24" data-name="Path 24" d="M197.8,507.124s14.108,23.522,43.355,31.635c20.37,5.655,29.722-.164,33.764-4.835a12.078,12.078,0,0,0,2.616-10.163c-1.268-6.147-6.578-16.064-26.948-21.637A76.133,76.133,0,0,0,197.8,507.124Z" transform="translate(-41.026 -90.127)" fill="#fff"/>
      <path id="Path_25" data-name="Path 25" d="M.2,453.816s14.108,23.522,43.355,31.635c20.37,5.655,29.722-.164,33.764-4.835a12.078,12.078,0,0,0,2.616-10.163c-1.268-6.147-6.578-16.064-26.948-21.637A75.486,75.486,0,0,0,.2,453.816Z" transform="translate(-0.041 -80.503)" fill="#fff"/>
      <path id="Path_26" data-name="Path 26" d="M0,781.622a75.645,75.645,0,0,0,52.866,5c20.369-5.655,25.68-15.49,26.948-21.636A12.078,12.078,0,0,0,77.2,754.822c-4.042-4.672-13.474-10.49-33.764-4.835C14.108,758.1,0,781.622,0,781.622Z" transform="translate(0 -134.901)" fill="#fff"/>
      <path id="Path_27" data-name="Path 27" d="M166.6,1064s26.789-.9,48.189-23.03c14.9-15.408,14.742-26.718,12.84-32.7a11.415,11.415,0,0,0-7.133-7.376c-5.786-1.967-16.724-2.131-31.624,13.277C167.472,1036.3,166.6,1064,166.6,1064Z" transform="translate(-34.555 -180.426)" fill="#fff"/>
      <path id="Path_28" data-name="Path 28" d="M453.564,1226.9s22.747-14.588,30.594-44.83c5.469-21.063-.159-30.734-4.676-34.913a11.138,11.138,0,0,0-9.828-2.7c-5.944,1.312-15.535,6.8-20.924,27.865C440.883,1202.473,453.564,1226.9,453.564,1226.9Z" transform="translate(-92.541 -206.452)" fill="#fff"/>
      <path id="Path_29" data-name="Path 29" d="M780.5,1227.077s12.681-24.423,4.835-54.665c-5.469-21.063-14.98-26.554-20.924-27.865a11.137,11.137,0,0,0-9.828,2.7c-4.518,4.18-10.145,13.932-4.676,34.913C757.756,1212.489,780.5,1227.077,780.5,1227.077Z" transform="translate(-155.072 -206.47)" fill="#fff"/>
      <path id="Path_30" data-name="Path 30" d="M1061.895,1064.6s-.872-27.7-22.272-49.83c-14.9-15.408-25.839-15.244-31.624-13.277a11.417,11.417,0,0,0-7.133,7.376c-1.9,5.983-2.061,17.293,12.84,32.7C1035.1,1063.7,1061.895,1064.6,1061.895,1064.6Z" transform="translate(-207.405 -180.535)" fill="#fff"/>
      <path id="Path_31" data-name="Path 31" d="M1224.174,782.422s-14.108-23.522-43.355-31.636c-20.369-5.655-29.722.164-33.764,4.836a12.078,12.078,0,0,0-2.616,10.162c1.268,6.147,6.579,16.064,26.948,21.637A76.011,76.011,0,0,0,1224.174,782.422Z" transform="translate(-237.323 -135.045)" fill="#fff"/>
      <path id="Path_32" data-name="Path 32" d="M1224.353,454.516a75.645,75.645,0,0,0-52.866-5c-20.37,5.655-25.68,15.49-26.948,21.637a12.077,12.077,0,0,0,2.616,10.163c4.042,4.672,13.474,10.49,33.764,4.836C1210.245,478.12,1224.353,454.516,1224.353,454.516Z" transform="translate(-237.343 -80.629)" fill="#fff"/>
      <path id="Path_33" data-name="Path 33" d="M1062.494,167.2s-26.789.9-48.189,23.03c-14.9,15.408-14.742,26.718-12.84,32.7a11.415,11.415,0,0,0,7.133,7.376c5.786,1.967,16.724,2.131,31.624-13.277C1061.623,194.9,1062.494,167.2,1062.494,167.2Z" transform="translate(-207.53 -30.168)" fill="#fff"/>
      <path id="Path_34" data-name="Path 34" d="M781.3.2s-22.747,14.588-30.594,44.83c-5.469,21.063.159,30.734,4.676,34.914a11.138,11.138,0,0,0,9.828,2.7c5.944-1.311,15.535-6.8,20.924-27.865C793.906,24.623,781.3.2,781.3.2Z" transform="translate(-155.238 -0.036)" fill="#fff"/>
      <path id="Path_35" data-name="Path 35" d="M454.264,0s-12.681,24.423-4.835,54.665c5.469,21.063,14.98,26.554,20.924,27.865a11.137,11.137,0,0,0,9.828-2.7c4.518-4.18,10.145-13.933,4.676-34.914C477.091,14.588,454.264,0,454.264,0Z" transform="translate(-92.686)" fill="#fff"/>
      <path id="Path_36" data-name="Path 36" d="M167.2,166.6s.872,27.7,22.272,49.83c14.9,15.408,25.838,15.244,31.624,13.277a11.416,11.416,0,0,0,7.133-7.376c1.9-5.983,2.061-17.293-12.84-32.7C193.989,167.5,167.2,166.6,167.2,166.6Z" transform="translate(-34.679 -30.06)" fill="#fff"/>
      <path id="Path_37" data-name="Path 37" d="M143.9,888.143s26.076,6.311,52.311-9.343c18.23-10.9,20.924-21.883,20.607-28.111a11.831,11.831,0,0,0-5.073-9.1c-5.073-3.442-15.614-6.557-33.843,4.344C151.667,861.589,143.9,888.143,143.9,888.143Z" transform="translate(-29.847 -151.27)" fill="#fff"/>
      <path id="Path_38" data-name="Path 38" d="M345.975,1084.795s25.68-8.032,40.818-35.159c10.541-18.85,7.53-29.751,4.2-35a11.29,11.29,0,0,0-8.8-5.245c-6.1-.328-16.644,2.377-27.186,21.309C339.793,1057.831,345.975,1084.795,345.975,1084.795Z" transform="translate(-71.502 -182.123)" fill="#fff"/>
      <path id="Path_39" data-name="Path 39" d="M617.888,1156.717s18.388-20.243,18.388-51.551c0-21.8-7.847-29.668-13.315-32.537a11.082,11.082,0,0,0-10.145,0c-5.469,2.868-13.315,10.736-13.315,32.537C599.5,1136.474,617.888,1156.717,617.888,1156.717Z" transform="translate(-124.344 -193.315)" fill="#fff"/>
      <path id="Path_40" data-name="Path 40" d="M886.505,1084.8s6.1-26.964-9.036-54.092c-10.541-18.85-21.162-21.637-27.186-21.309a11.29,11.29,0,0,0-8.8,5.245c-3.329,5.245-6.341,16.145,4.2,35C860.825,1076.845,886.505,1084.8,886.505,1084.8Z" transform="translate(-173.889 -182.123)" fill="#fff"/>
      <path id="Path_41" data-name="Path 41" d="M1082.312,888.143s-7.767-26.554-34-42.208c-18.23-10.9-28.771-7.786-33.844-4.344a11.831,11.831,0,0,0-5.072,9.1c-.317,6.311,2.3,17.211,20.607,28.111C1056.236,894.454,1082.312,888.143,1082.312,888.143Z" transform="translate(-209.356 -151.27)" fill="#fff"/>
      <path id="Path_42" data-name="Path 42" d="M1153.908,618.514s-19.577-19.014-49.854-19.014c-21.083,0-28.692,8.114-31.466,13.769a12.167,12.167,0,0,0,0,10.49c2.774,5.655,10.383,13.769,31.466,13.769A77.288,77.288,0,0,0,1153.908,618.514Z" transform="translate(-222.222 -108.169)" fill="#fff"/>
      <path id="Path_43" data-name="Path 43" d="M1082.313,346.023s-26.077-6.311-52.311,9.343c-18.229,10.9-20.924,21.882-20.607,28.111a11.831,11.831,0,0,0,5.073,9.1c5.073,3.442,15.614,6.557,33.844-4.344C1074.624,372.5,1082.313,346.023,1082.313,346.023Z" transform="translate(-209.356 -62.207)" fill="#fff"/>
      <path id="Path_44" data-name="Path 44" d="M886.505,143.9s-25.68,8.032-40.818,35.16c-10.542,18.85-7.53,29.75-4.2,35a11.29,11.29,0,0,0,8.8,5.245c6.1.328,16.644-2.377,27.186-21.309C892.608,170.864,886.505,143.9,886.505,143.9Z" transform="translate(-173.889 -25.964)" fill="#fff"/>
      <path id="Path_45" data-name="Path 45" d="M617.888,69.8S599.5,90.043,599.5,121.351c0,21.8,7.847,29.668,13.316,32.537a11.08,11.08,0,0,0,10.145,0c5.469-2.868,13.315-10.736,13.315-32.537C636.2,90.043,617.888,69.8,617.888,69.8Z" transform="translate(-124.344 -12.594)" fill="#fff"/>
      <path id="Path_46" data-name="Path 46" d="M345.982,143.9s-6.1,26.964,9.035,54.091c10.541,18.85,21.162,21.637,27.186,21.309a11.289,11.289,0,0,0,8.8-5.245c3.329-5.245,6.341-16.145-4.2-35C371.582,151.932,345.982,143.9,345.982,143.9Z" transform="translate(-71.509 -25.964)" fill="#fff"/>
      <path id="Path_47" data-name="Path 47" d="M143.9,346.017s7.767,26.554,34,42.208c18.229,10.9,28.771,7.786,33.843,4.344a11.831,11.831,0,0,0,5.073-9.1c.317-6.311-2.3-17.211-20.607-28.111C169.976,339.625,143.9,346.017,143.9,346.017Z" transform="translate(-29.847 -62.201)" fill="#fff"/>
      <path id="Path_48" data-name="Path 48" d="M339.7,775.143s26.076,6.311,52.311-9.343c18.23-10.9,20.924-21.882,20.607-28.111a11.83,11.83,0,0,0-5.073-9.1c-5.073-3.442-15.614-6.557-33.844,4.344C347.388,748.589,339.7,775.143,339.7,775.143Z" transform="translate(-70.458 -130.881)" fill="#fff"/>
      <path id="Path_49" data-name="Path 49" d="M458.982,889.095s25.68-8.032,40.818-35.16c10.541-18.85,7.53-29.75,4.2-35a11.29,11.29,0,0,0-8.8-5.245c-6.1-.328-16.644,2.377-27.186,21.309A83.157,83.157,0,0,0,458.982,889.095Z" transform="translate(-94.946 -146.812)" fill="#fff"/>
      <path id="Path_50" data-name="Path 50" d="M617.888,930.717s18.388-20.243,18.388-51.551c0-21.8-7.847-29.668-13.315-32.537a11.079,11.079,0,0,0-10.145,0c-5.469,2.869-13.315,10.736-13.315,32.537C599.5,910.474,617.888,930.717,617.888,930.717Z" transform="translate(-124.344 -152.537)" fill="#fff"/>
      <path id="Path_51" data-name="Path 51" d="M773.5,889.1s6.1-26.964-9.035-54.091c-10.541-18.85-21.162-21.637-27.186-21.309a11.29,11.29,0,0,0-8.8,5.245c-3.329,5.245-6.341,16.146,4.2,35C747.825,881.063,773.5,889.1,773.5,889.1Z" transform="translate(-150.452 -146.812)" fill="#fff"/>
      <path id="Path_52" data-name="Path 52" d="M886.612,775.143s-7.767-26.554-34-42.208c-18.229-10.9-28.771-7.786-33.843-4.344a11.83,11.83,0,0,0-5.072,9.1c-.317,6.311,2.3,17.211,20.607,28.111C860.456,781.454,886.612,775.143,886.612,775.143Z" transform="translate(-168.765 -130.881)" fill="#fff"/>
      <path id="Path_53" data-name="Path 53" d="M927.909,618.514S908.331,599.5,878.055,599.5c-21.083,0-28.692,8.114-31.466,13.769a12.164,12.164,0,0,0,0,10.49c2.774,5.655,10.383,13.769,31.466,13.769A77.289,77.289,0,0,0,927.909,618.514Z" transform="translate(-175.346 -108.169)" fill="#fff"/>
      <path id="Path_54" data-name="Path 54" d="M886.612,459.023s-26.076-6.311-52.311,9.343c-18.23,10.9-20.924,21.882-20.607,28.111a11.831,11.831,0,0,0,5.073,9.1c5.073,3.442,15.614,6.556,33.844-4.344C878.845,485.577,886.612,459.023,886.612,459.023Z" transform="translate(-168.765 -82.596)" fill="#fff"/>
      <path id="Path_55" data-name="Path 55" d="M773.5,339.7s-25.68,8.032-40.818,35.159c-10.541,18.85-7.53,29.75-4.2,35a11.29,11.29,0,0,0,8.8,5.245c6.1.328,16.644-2.377,27.186-21.309C779.608,366.664,773.5,339.7,773.5,339.7Z" transform="translate(-150.452 -61.293)" fill="#fff"/>
    </g>
  </g>
</svg>
